<svg xmlns="http://www.w3.org/2000/svg" width="900" height="900" viewBox="0 0 900 900">
<defs>
<linearGradient id="bg" x2="1" y2="1"><stop stop-color="hsl(122 58% 96%)"/><stop offset="1" stop-color="hsl(160 72% 88%)"/></linearGradient>
<linearGradient id="screen" x1="0" y1="0" x2="1" y2="1"><stop stop-color="hsl(160 80% 62%)"/><stop offset=".55" stop-color="hsl(312 75% 48%)"/><stop offset="1" stop-color="#0f172a"/></linearGradient>
<radialGradient id="lens"><stop stop-color="#7dd3fc"/><stop offset=".5" stop-color="#2563eb"/><stop offset="1" stop-color="#020617"/></radialGradient>
<filter id="shadow"><feDropShadow dx="0" dy="22" stdDeviation="22" flood-opacity=".2"/></filter>
</defs>
<rect width="900" height="900" rx="52" fill="url(#bg)"/><circle cx="100" cy="125" r="71" fill="hsl(312 75% 70%)" opacity=".22"/><circle cx="310" cy="685" r="35" fill="hsl(347 75% 70%)" opacity=".22"/><circle cx="520" cy="125" r="53" fill="hsl(22 75% 70%)" opacity=".22"/><circle cx="730" cy="685" r="71" fill="hsl(57 75% 70%)" opacity=".22"/>
<ellipse cx="450" cy="705" rx="265" ry="55" fill="#111827" opacity=".10"/>
<g transform="translate(450 445) rotate(0) translate(-450 -445)" filter="url(#shadow)"><rect x="205" y="280" width="490" height="320" rx="54" fill="#111827"/><rect x="285" y="230" width="155" height="75" rx="25" fill="hsl(122 68% 42%)"/><circle cx="460" cy="440" r="145" fill="#020617" stroke="hsl(122 68% 42%)" stroke-width="28"/><circle cx="460" cy="440" r="84" fill="url(#lens)"/><circle cx="615" cy="335" r="24" fill="#ef4444"/></g>
<rect x="52" y="45" width="245" height="54" rx="27" fill="#fff" opacity=".88"/><text x="78" y="80" font-family="Arial,sans-serif" font-size="22" fill="#111827" font-weight="800">PREMIUM PRODUCT</text>
<text x="60" y="835" font-family="Arial,sans-serif" font-size="30" fill="#111827" font-weight="800">HomeNest Camera 165</text>
<text x="60" y="870" font-family="Arial,sans-serif" font-size="20" fill="#475569">Cameras · ShopVerse</text>
</svg>