<svg xmlns="http://www.w3.org/2000/svg" width="900" height="900" viewBox="0 0 900 900"><defs><linearGradient id="bg" x2="1" y2="1"><stop stop-color="#f8fafc"/><stop offset="1" stop-color="hsl(125 65% 91%)"/></linearGradient><linearGradient id="screen" x2="1" y2="1"><stop stop-color="hsl(145 80% 60%)"/><stop offset="1" stop-color="#111827"/></linearGradient><radialGradient id="lens"><stop stop-color="#7dd3fc"/><stop offset=".5" stop-color="#2563eb"/><stop offset="1" stop-color="#020617"/></radialGradient><filter id="shadow"><feDropShadow dx="0" dy="22" stdDeviation="22" flood-opacity=".2"/></filter></defs><rect width="900" height="900" rx="52" fill="url(#bg)"/><ellipse cx="450" cy="705" rx="260" ry="52" fill="#111827" opacity=".1"/><g transform="translate(36.9 0) scale(0.918 1)"><g transform="translate(450 445) rotate(-2.8284271247461907) translate(-450 -445)" filter="url(#shadow)"><rect x="280" y="475" width="340" height="175" rx="70" fill="hsl(90 68% 42%)"/><rect x="315" y="505" width="270" height="105" rx="48" fill="#f8fafc"/><path d="M350 285c0-70 52-115 108-115s100 42 100 99c0 44-26 78-61 91v133h-75V348c-42-14-72-36-72-63z" fill="#111827"/><circle cx="456" cy="270" r="38" fill="hsl(125 72% 54%)"/><path d="M552 310c55 0 98 42 98 98 0 42-24 74-58 89V605h-70V480c-43-15-69-47-69-89 0-45 40-81 99-81z" fill="#111827"/><circle cx="555" cy="395" r="34" fill="hsl(125 72% 54%)"/></g></g><text x="60" y="80" font-family="Arial" font-size="25" font-weight="800" fill="#111827">360° · 22/24</text><text x="60" y="840" font-family="Arial" font-size="28" font-weight="800" fill="#111827">Zenix Earbud 190</text></svg>