<svg xmlns="http://www.w3.org/2000/svg" width="900" height="900" viewBox="0 0 900 900">
<defs>
<linearGradient id="bg" x2="1" y2="1"><stop stop-color="hsl(255 58% 96%)"/><stop offset="1" stop-color="hsl(293 72% 88%)"/></linearGradient>
<linearGradient id="screen" x1="0" y1="0" x2="1" y2="1"><stop stop-color="hsl(293 80% 62%)"/><stop offset=".55" stop-color="hsl(85 75% 48%)"/><stop offset="1" stop-color="#0f172a"/></linearGradient>
<radialGradient id="lens"><stop stop-color="#7dd3fc"/><stop offset=".5" stop-color="#2563eb"/><stop offset="1" stop-color="#020617"/></radialGradient>
<filter id="shadow"><feDropShadow dx="0" dy="22" stdDeviation="22" flood-opacity=".2"/></filter>
</defs>
<rect width="900" height="900" rx="52" fill="url(#bg)"/><circle cx="100" cy="125" r="35" fill="hsl(85 75% 70%)" opacity=".22"/><circle cx="310" cy="685" r="53" fill="hsl(120 75% 70%)" opacity=".22"/><circle cx="520" cy="125" r="71" fill="hsl(155 75% 70%)" opacity=".22"/><circle cx="730" cy="685" r="35" fill="hsl(190 75% 70%)" opacity=".22"/>
<ellipse cx="450" cy="705" rx="265" ry="55" fill="#111827" opacity=".10"/>
<g transform="translate(450 445) rotate(3) translate(-450 -445)" filter="url(#shadow)"><path d="M285 275h330l55 420H230z" fill="hsl(255 68% 42%)"/><path d="M315 275c0-110 55-165 135-165s135 55 135 165" fill="none" stroke="#111827" stroke-width="28"/><circle cx="385" cy="430" r="55" fill="#22c55e"/><circle cx="505" cy="455" r="65" fill="#ef4444"/><path d="M440 520c40-95 110-115 145-85-20 85-55 135-145 85z" fill="#facc15"/></g>
<rect x="52" y="45" width="245" height="54" rx="27" fill="#fff" opacity=".88"/><text x="78" y="80" font-family="Arial,sans-serif" font-size="22" fill="#111827" font-weight="800">ALT VIEW</text>
<text x="60" y="835" font-family="Arial,sans-serif" font-size="30" fill="#111827" font-weight="800">HomeNest Grocery 151</text>
<text x="60" y="870" font-family="Arial,sans-serif" font-size="20" fill="#475569">Grocery · ShopVerse</text>
</svg>